/* XPM */
static char *result[] = {
/* columns rows colors chars-per-pixel */
"64 64 211 2 ",
"   c #010101",
".  c #080604",
"X  c #070909",
"o  c #0B0B0C",
"O  c #140D0A",
"+  c #150A08",
"@  c #0C0C11",
"#  c #0E1313",
"$  c #111415",
"%  c #1E1611",
"&  c #15151B",
"*  c #161D1D",
"=  c #19191D",
"-  c #17110D",
";  c #251815",
":  c #391A15",
">  c #30100D",
",  c #1C1C22",
"<  c #161721",
"1  c #201F25",
"2  c #1E2323",
"3  c #1C2426",
"4  c #1B2337",
"5  c #222526",
"6  c #242329",
"7  c #242C2D",
"8  c #292F2F",
"9  c #3B2A21",
"0  c #262636",
"q  c #2A2C3A",
"w  c #292937",
"e  c #372B39",
"r  c #253232",
"t  c #2A3534",
"y  c #2E323C",
"u  c #2C3A39",
"i  c #32333B",
"p  c #353C3D",
"a  c #3A3E3F",
"s  c #38373A",
"d  c #463529",
"f  c #433D3A",
"g  c #4C2F2B",
"h  c #6B3A3A",
"j  c #673938",
"k  c #753D3E",
"l  c #783B3A",
"z  c #632B27",
"x  c #541B18",
"c  c #3B413F",
"v  c #36403F",
"b  c #5B4332",
"n  c #5C4C36",
"m  c #474038",
"M  c #634B37",
"N  c #655135",
"B  c #6C5333",
"V  c #725631",
"C  c #7D693C",
"Z  c #343E41",
"A  c #393843",
"S  c #4A3D44",
"D  c #773F40",
"F  c #793F41",
"G  c #354142",
"H  c #394141",
"J  c #3C4B4C",
"K  c #38484A",
"L  c #3D4D52",
"P  c #3E5353",
"I  c #39504E",
"U  c #434C4D",
"Y  c #454348",
"T  c #4A4653",
"R  c #425454",
"E  c #445B5B",
"W  c #445A5A",
"Q  c #55555C",
"!  c #544649",
"~  c #664141",
"^  c #754141",
"/  c #794040",
"(  c #724A4C",
")  c #75574D",
"_  c #4C625E",
"`  c #46605F",
"'  c #50645D",
"]  c #76714A",
"[  c #435E62",
"{  c #5A5C66",
"}  c #715E66",
"|  c #4A6262",
" . c #496464",
".. c #55666B",
"X. c #5D7075",
"o. c #696777",
"O. c #62737A",
"+. c #6C717D",
"@. c #6D6B71",
"#. c #853D3E",
"$. c #9A3639",
"%. c #812A26",
"&. c #A83939",
"*. c #B93737",
"=. c #AD2E2E",
"-. c #C73939",
";. c #BC711F",
":. c #B96E1F",
">. c #855D2D",
",. c #A94B35",
"<. c #B24A32",
"1. c #A56925",
"2. c #AB6B23",
"3. c #A06726",
"4. c #B56E20",
"5. c #B87020",
"6. c #B77020",
"7. c #816838",
"8. c #C84A3B",
"9. c #C17920",
"0. c #864B46",
"q. c #8B534B",
"w. c #92554D",
"e. c #845356",
"r. c #904B4A",
"t. c #89664C",
"y. c #897E48",
"u. c #916C51",
"i. c #AE7059",
"p. c #8B5E67",
"a. c #AA5A67",
"s. c #BB7C64",
"d. c #D95B41",
"f. c #C44E40",
"g. c #D66B4E",
"h. c #E96648",
"j. c #F66A49",
"k. c #EA7D5C",
"l. c #E15342",
"z. c #AB8D3C",
"x. c #D58A1E",
"c. c #E0951E",
"v. c #FDB31E",
"b. c #C98623",
"n. c #D08820",
"m. c #DB9320",
"M. c #CA9B31",
"N. c #DDA42A",
"B. c #E8A825",
"V. c #F6AE20",
"C. c #F8B020",
"Z. c #E09820",
"A. c #968344",
"S. c #8E8047",
"D. c #B68A67",
"F. c #D5896B",
"G. c #C4916D",
"H. c #CB9572",
"J. c #D99775",
"K. c #CB8A6D",
"L. c #EE936E",
"P. c #DBA27A",
"I. c #E3A17C",
"U. c #746D83",
"Y. c #787789",
"T. c #7D7792",
"R. c #6D7783",
"E. c #827C94",
"W. c #867D9A",
"Q. c #937F9B",
"!. c #7A8593",
"~. c #88839B",
"^. c #938BAA",
"/. c #938BA4",
"(. c #9992AC",
"). c #9D96B3",
"_. c #9F9CB6",
"`. c #938CAE",
"'. c #A39DB9",
"]. c #A29BB7",
"[. c #A6A2BD",
"{. c #B3ADB8",
"}. c #9DA0AB",
"|. c #E8AC81",
" X c #F8BA8B",
".X c #EDB084",
"XX c #FDC795",
"oX c #FFD09B",
"OX c #ACA7C4",
"+X c #AFA9C5",
"@X c #B4ACCC",
"#X c #B1A8C6",
"$X c #B9BAC8",
"%X c #BAB2D3",
"&X c #BFB7D8",
"*X c #B7AFD0",
"=X c #C3BCDB",
"-X c #C0B8D8",
";X c #C4BECA",
":X c #C8BFE2",
">X c #BEC0CC",
",X c #CBC6D3",
"<X c #CBC2E6",
"1X c #DAD9EB",
"2X c #E4E3F4",
"3X c #ECECFC",
"4X c #E8E7F9",
"5X c #F2F2FF",
"6X c #EFF0FF",
"7X c #E0DFF2",
"8X c None",
/* pixels */
"8X8X8X8X8X8X8X8X8X8X8X8X8X8X8X8X8X8X8X8X8X8X8X8X8X8X8X8X8X8X8X8X8X8X8X8X8X8X8X8X8X8X8X8X8X8X8X8X8X8X8X8X8X8X8X8X8X8X8X8X8X8X8X8X",
"8X8X8X8X8X8X8X8X8X8X8X8X8X8X8X8X8X8X8X8X8X8X8X8X8X8X8X8X8X8X8X8X8X8X8X8X8X8X8X8X8X8X8X8X8X8X8X8X8X8X8X8X8X8X8X8X8X8X8X8X8X8X8X8X",
"8X8X8X8X8X8X8X8X8X8X8X8X8X8X8X8X8X8X8X8X8X8X8X8X8X8X8X8X8X8X8X8X8X8X8X8X8X8X8X8X8X8X8X8X8X8X8X8X8X8X8X8X8X8X8X8X8X8X8X8X8X8X8X8X",
"8X8X8X8X8X8X8X8X8X8X8X8X8X8X8X8X8X8X8X8X8X8X8X8X8X8X8X8X8X8X8X8X8X8X8X8X8X8X8X8X8X8X8X8X8X8X8X8X8X8X8X8X8X8X8X8X8X8X8X8X8X8X8X8X",
"8X8X8X8X8X8X8X8X8X8X8X8X8X8X8X8Xv H a H Z v B 1.;.5.5.5.5.5.5.5.:.;.4.;.5.;.1.N v Z H a v H 8X8X8X8X8X8X8X8X8X8X8X8X8X8X8X8X8X8X",
"8X8X8X8X8X8X8X8X8X8X8X8X8X8Xa H H v H a Z a B 1.;.5.4.5.4.5.5.4.6.4.4.4.5.;.1.N v Z v H H v H 8X8X8X8X8X8X8X8X8X8X8X8X8X8X8X8X8X",
"8X8X8X8X8X8X8X8X8X8X8X8X8X8XG v v H H v Z v B 2.;.5.5.5.5.5.5.5.6.6.4.;.:.;.1.N H G H v v H H 8X8X8X8X8X8X8X8X8X8X8X8X8X8X8X8X8X",
"8X8X8X8X8X8X8X8X8X8X8X    X u U R U R U P R ] b.c.m.m.m.m.m.m.m.m.m.m.m.m.c.b.] U L R R U R J t X     8X8X8X8X8X8X8X8X8X8X8X8X8X",
"8X8X8X8X8X8X8X8X8X8X      X r W  .| | | [ _ y.B.v.C.C.C.C.C.C.C.C.C.C.C.C.v.N.y.| [ ` | `  .W r X       8X8X8X8X8X8X8X8X8X8X8X8X",
"8X8X8X8X8X8X8X8X8X8X      . r W  .` E | [ _ y.B.v.C.C.C.C.C.C.C.C.C.C.C.v.v.N.y.| [ | E |  .W 7 X       8X8X8X8X8X8X8X8X8X8X8X8X",
"8X8X8X8X8X8X8X8X8X8X      X r E  .| ` [ [ _ y.B.v.v.C.C.C.C.V.C.C.C.C.C.v.v.N.y.| [ | E ` | W r         8X8X8X8X8X8X8X8X8X8X8X8X",
"8X8X8X8X8X8X8X8X8X8X      X r E  .E | | [ [ y.B.v.C.C.C.C.C.C.C.C.C.C.C.C.C.N.y.E [ | | ` | W 7 X       8X8X8X8X8X8X8X8X8X8X8X8X",
"8X8X8X8X8X8X8X8X8X8X      X r E | ` ` | | _ S.N.v.C.C.C.C.C.C.C.C.C.C.C.v.v.N.y.| [  .| | | E r X       8X8X8X8X8X8X8X8X8X8X8X8X",
"8X8X8X8X8X8X8X    X 7 t t u J [ | ` ] z.z.z.M.V.v.C.C.C.C.C.C.C.C.C.C.C.V.v.B.M.z.z.z.] | [ E K t r u 3 X     8X8X8X8X8X8X8X8X8X",
"8X8X8X8X8X8X      X u |  .| | | [ _ A.V.v.v.C.C.C.C.C.C.C.C.C.C.C.C.C.V.C.C.C.v.v.v.B.A.` [ ` |  . .| r X       8X8X8X8X8X8X8X8X",
"8X8X8X8X8X8X      o u E  .` ` ` | ' A.B.v.v.C.C.C.C.C.C.V.C.C.C.C.C.C.C.C.C.C.C.v.v.B.A._ [ ` ` |  .` r X       8X8X8X8X8X8X8X8X",
"8X8X8X8X8X8X      X 7 J U I R ` | _ A.B.v.C.C.C.C.C.C.V.C.C.C.C.C.C.C.C.C.C.C.C.C.C.B.A.| [ | R U I J 7 X       8X8X8X8X8X8X8X8X",
"8X8X8X8X8X8X      X 5 v H H R E | ' A.B.v.C.C.C.C.C.C.C.C.C.C.C.V.C.C.C.C.C.C.C.C.C.B.S.' | E I H H p 5 .       8X8X8X8X8X8X8X8X",
"8X8X8X8X8X8X      X 3 p H H R E [ _ A.B.v.C.C.C.C.C.C.C.C.C.C.C.C.C.C.C.V.C.C.C.C.v.B.S._ [ W U H v p 5 X       8X8X8X8X8X8X8X8X",
"8X8X8X8X8X8X      X 5 p H H K U K U 7.b.x.n.m.C.C.C.C.C.C.C.C.V.C.C.C.C.C.C.V.c.n.x.b.C U K U K H v p 5 .       8X8X8X8X8X8X8X8X",
"8X8X8X8X8X8X      X 5 a H H G a a c V 2.;.5.n.V.C.C.C.C.C.C.C.v.C.C.C.C.C.v.B.x.5.5.2.V c Z a H v H a 3 X       8X8X8X8X8X8X8X8X",
"8X8X8X8X8X8X      X 5 a H a Z H Z c V 2.;.5.n.B.C.V.C.C.V.V.V.V.V.V.V.C.C.C.V.9.5.5.2.B c Z H v H H a 2 .       8X8X8X8X8X8X8X8X",
"8X8X8X8X8X8X      X , q y i A Z Z c V 2.;.:.9.n.n.n.n.n.n.n.n.n.n.n.n.n.n.n.n.9.;.;.2.V c Z G y i i q , X       8X8X8X8X8X8X8X8X",
"8X8X8X8X8X8X        < 0 q q s Z G c V 4.;.;.:.4.:.4.4.4.4.4.4.4.4.:.4.4.4.4.4.5.;.;.2.B c G Z A q q 0 &         8X8X8X8X8X8X8X8X",
"8X8X8X8X8X8X. . . o = w 0 0 y Z G c V 2.5.4.4.5.5.5.5.5.6.6.5.5.5.5.5.5.6.5.6.4.4.6.1.B H G Z i w 0 0 * . . . . 8X8X8X8X8X8X8X8X",
"8X8X8X    % N u.u.) d $ @ $ 3 q y i m n N N >.2.5.5.5.5.6.6.6.5.5.5.5.5.5.;.2.>.N M n f y i q , # @ $ d ) u.t.M %     8X8X8X8X8X",
"8X8X      ; u.P..XG.j       & 0 0 0 y p Z G B 2.9.5.5.5.;.;.;.;.:.:.;.;.;.;.1.N Z Z Z q 0 w 0 $     . N H.I.P.t.%       8X8X8X8X",
"8X8X      ; u.P.I.D.b     X & 0 q q y a Z a N 3.4.4.4.6.4.2.4.4.4.4.4.2.4.4.3.N Z Z Z A q q 0 &     o N H.I.P.t.%       8X8X8X8X",
"8X8X      ; u.P..XD.b     X 7 K P L A A q q a n N N N N N N N N N N N N N N n a q q A Z L R K 3 .   . b G.I.P.t.%       8X8X8X8X",
"8X8X      ; u.P..XG.b .   . r E  .| J q 0 0 q Z Z Z Z H Z Z Z G Z Z Z G Z G p q 0 0 q J |  .E r X   . M G..XP.t.%       8X8X8X8X",
"8X8X      ; t.H.P.D.d .   X r W  .E J q q q A Z H K H H H K H H H H H H H H a y q w q L [ | W 7 .   . b D.P.H.t.%       8X8X8X8X",
"8X8X8X8X8X8X9 d d d % .   . 3 K U L L L L L L P R R R R R R R R R R R W R R R P P L L J J U G 3 X     % 9 d d 9 8X8X8X8X8X8X8X8X",
"8X8X8X8X8X8X              . 5 p H H U |  . . .| | |  .| | | | |  . .| | | | | |  . .| U H H p = .               8X8X8X8X8X8X8X8X",
"8X8X8X8X8X8X              . = u a v J W E W W E E W E E E E E W E E E W E E E E W E W K a v p *                 8X8X8X8X8X8X8X8X",
"8X8X8X8X8X8X8X8X8X8X        X $ # $ $ * * 2 * * * * * * * * * * * * , * * * * * * * * * $ $ # X         8X8X8X8X8X8X8X8X8X8X8X8X",
"8X8X8X8X8X8X8X8X8X8X                                                                                    8X8X8X8X8X8X8X8X8X8X8X8X",
"8X8X8X8X8X8X8X8X8X8X          . X           . X o o o @ o o @ o @ o o @ o X o .         .   . .         8X8X8X8X8X8X8X8X8X8X8X8X",
"8X8X8X8X8X8X8X              * 7 8 7 & .     i U.~.E.~.E.Y.~.~.E.~.E.E.E.~.~.o.w     X $ 7 8 7 $               8X8X8X8X8X8X8X8X8X",
"8X8X8X8X8X8X                2 Z U v 2       T [.<X=X-X&X&X&X&X&X%X&X&X-X&X<X'.T     . 5 Z U p =                 8X8X8X8X8X8X8X8X",
"8X8X8X8X8X8X- O O o + + + O 6 a v p 5 o   . T (.@X#X#X@X*X*X*X*X*X*X*X+X+X@X^.S X   o 5 p H s 1 O + + + O O O - 8X8X8X8X8X8X8X8X",
"8X8XF F D 0.i.D.D.D.i.<.<.,.h e q t q 8 7 r H { ..{ E.[.%X*X*X*X%X%X[.Y...{ Q c 8 7 8 8 w A w j ,.<.<.i.D.D.D.i.0.k #.8X8X8X8X8X",
"8X8X#.B D r.H.oXoX XL.j.j.h.#.0 4 0 y H H H a p u p { [.-X%X%X*X%X-X_.{ u t s v v c a u 0 4 e r.j.j.j.L. XoXXXH.q.k M / 8X8X8X8X",
"8X8X/ k D q.H. X X XL.j.j.h.,.f w e e Z Z Z c a A A o.(.#X#X#XOXOXOX(.@.U U U U Y Y H A A 0 g r.h.j.h.L..XXX XK.q.k k k 8X8X8X8X",
"8X8X^ k D ( s.|.I.J.k.j.j.l.<.$.$.$.#.h D D D M M j ( e.p.p.p.} ..{ @.}.>X>X{./.Y.U.E.e.$.$.$.f.h.j.h.k.J.|.J.s.0.k ^ ^ 8X8X8X8X",
"8X8X^ F D 0.i.J.J.F.k.j.j.j.8.-.-.-.&.#.D ^ D ^ / / k l h l j f r 7 ' $X6X5X2X@X`.`.Q.a.-.-.-.l.j.j.j.k.F.J.F.s.0.D F / 8X8X8X8X",
"8X8XF F D 0.i.K.F.F.g.d.d.l.8.-.-.*.$.l D D ^ D ^ ^ ^ e.0.e.( ! U U @.$X4X5X1X+X^.`.Q.a.*.*.=.f.8.h.d.g.F.F.F.i.0.D F / 8X8X8X8X",
"8X8X8X8X8X8Xr.w.w.0.z : : x %.*.-.*.$.0.^ ^ D Y f m @.{.,X;X;X;X>X$X,X1X3X3X1X+X^.`.W.S > > > : : : : j 0.w.w.q.8X8X8X8X8X8X8X8X",
"8X8X8X8X8X8XF F F j ;     . z *.-.*.$.0.^ ^ j p p m +.,X5X5X6X6X5X5X6X3X4X3X1X+X~.`.T.A               ; j D D D 8X8X8X8X8X8X8X8X",
"8X8X8X8X8X8X/ / / h : @ X # z =.-.*.$.h h h j Y K K Y.,X4X4X2X2X7X7X2X2X2X2X1X+X`.`.~.Y o X X o . X o 9 h / / / 8X8X8X8X8X8X8X8X",
"8X8X8X8X8X8X8X8X8X8XK I K K D 0.#.#.g ; + - A U.T.T./.@X=X=X=X=X,X=X=X=X=X=X&X@X#X@X_.R.I K K J J K K K 8X8X8X8X8X8X8X8X8X8X8X8X",
"8X8X8X8X8X8X8X8X8X8X .....| Q M F D g . .   A T.`.`.).@X*X*X@X*X*X*X*X%X%X%X%X&X&X&X+X!. . . . . . . . .8X8X8X8X8X8X8X8X8X8X8X8X",
"8X8X8X8X8X8X8X8X8X8XR R P Q S h j j : .   . A T.`.^.).+X%X*X*X*X@X+XOXOXOXOXOX+XOX+X_.R.E P R P W R R W 8X8X8X8X8X8X8X8X8X8X8X8X",
"8X8X8X8X8X8X8X8X8X8X$ $ $ $ $ - - + +       A T.`.^.).#X%X*X%X%X[.!.X.X.O.O.O.O.O.R...Z $ # $ $ $ $ $ $ 8X8X8X8X8X8X8X8X8X8X8X8X",
"8X8X8X8X8X8X8X8X8X8X                        e E.).`.].*X&X&X-X-X[.O.` ` E | E P E E I *   .             8X8X8X8X8X8X8X8X8X8X8X8X",
"8X8X8X8X8X8X8X8X8X8X      . o = & = = = & = A U.W.T.W.).].].].]./...I I P P P | ..X. .Z = = & o         8X8X8X8X8X8X8X8X8X8X8X8X",
"8X8X8X8X8X8X8X8X8X8X      o T ~.(./././.^./.o.w & , 1 6 6 0 6 6 3 * # # # @ 7 R._.OX_.`./.(.W.T X       8X8X8X8X8X8X8X8X8X8X8X8X",
"8X8X8X8X8X8X8X8X8X8X      @ o.%X<X=X=X=X<X=XU.$                             = Y.&X=X=X=X=X<X*X{ o       8X8X8X8X8X8X8X8X8X8X8X8X",
"8X8X8X8X8X8X8X8X8X8X      o { (.].).].).].).o.&                             , o.).].).].].'.^.Q o     8X8X8X8X8X8X8X8X8X8X8X8X8X",
"8X8X8X8X8X8X8X8X8X8X8X8X8X8X, 1 6 6 6 6 6 6 , 8X8X8X8X8X8X8X8X8X8X8X8X8X8X8X8X1 6 6 6 6 1 6 6 , 8X8X8X8X8X8X8X8X8X8X8X8X8X8X8X8X",
"8X8X8X8X8X8X8X8X8X8X8X8X8X8X                  8X8X8X8X8X8X8X8X8X8X8X8X8X8X8X8X                8X8X8X8X8X8X8X8X8X8X8X8X8X8X8X8X8X",
"8X8X8X8X8X8X8X8X8X8X8X8X8X8X8X                8X8X8X8X8X8X8X8X8X8X8X8X8X8X8X8X                8X8X8X8X8X8X8X8X8X8X8X8X8X8X8X8X8X",
"8X8X8X8X8X8X8X8X8X8X8X8X8X8X8X8X8X8X8X8X8X8X8X8X8X8X8X8X8X8X8X8X8X8X8X8X8X8X8X8X8X8X8X8X8X8X8X8X8X8X8X8X8X8X8X8X8X8X8X8X8X8X8X8X",
"8X8X8X8X8X8X8X8X8X8X8X8X8X8X8X8X8X8X8X8X8X8X8X8X8X8X8X8X8X8X8X8X8X8X8X8X8X8X8X8X8X8X8X8X8X8X8X8X8X8X8X8X8X8X8X8X8X8X8X8X8X8X8X8X",
"8X8X8X8X8X8X8X8X8X8X8X8X8X8X8X8X8X8X8X8X8X8X8X8X8X8X8X8X8X8X8X8X8X8X8X8X8X8X8X8X8X8X8X8X8X8X8X8X8X8X8X8X8X8X8X8X8X8X8X8X8X8X8X8X"
};
